# xmcd
# 
# Track frame offsets:
#     150
#     14687
#     35757
#     57587
#     77640
#     99117
#     116602
#     140162
#     160847
#     183872
#     203462
# 
# Disc length: 2907
# 
# Revision: 2
# Processed by: cddbd v1.5.2PL0 Copyright (c) Steve Scherf et al.
# Submitted via: BonkEnc v1.0.8
# 
DISCID=8f0b590b
DTITLE=Jeff Healy Band - Master Hits
DYEAR=1999
DGENRE=Rock
TTITLE0=Confidence Man
TTITLE1=Angel Eyes
TTITLE2=Nice Problem To Have
TTITLE3=See the Light
TTITLE4=House that Love Built
TTITLE5=Hell to Pay
TTITLE6=While My Guitar Gently Weeps
TTITLE7=Cruel Little Number
TTITLE8=Lost in you Eyes
TTITLE9=Stop Breakin' Down
TTITLE10=Communication Breakdown
EXTD=
EXTT0=
EXTT1=
EXTT2=
EXTT3=
EXTT4=
EXTT5=
EXTT6=
EXTT7=
EXTT8=
EXTT9=
EXTT10=
PLAYORDER=
